<?xml version="1.0" encoding="iso-8859-1"?>
<!-- Generator: Adobe Illustrator 19.0.0, SVG Export Plug-In . SVG Version: 6.00 Build 0)  -->
<svg version="1.1" id="Layer_1" xmlns="http://www.w3.org/2000/svg" xmlns:xlink="http://www.w3.org/1999/xlink" x="0px" y="0px"
	 viewBox="0 0 297.003 297.003" style="enable-background:new 0 0 297.003 297.003;" xml:space="preserve">
<g id="XMLID_34_">
	<g>
		<path style="fill:#BDC3C7;" d="M80.479,93.729l0.51,0.5c-11.97,14.87-19.15,33.74-19.15,54.27c0,21.13,7.6,40.52,20.22,55.57
			c-13.63-5.75-25.91-13.5-36.76-23.22c-14.51-13.01-22.38-26.2-25.55-32.32c3.22-6.12,11.19-19.33,25.77-32.36
			C55.919,106.879,67.599,99.399,80.479,93.729z"/>
		<path style="fill:#BDC3C7;" d="M251.279,116.189c14.54,12.95,22.59,26.08,25.9,32.25c-5.44,9.91-23.36,37.65-61.01,54.47
			l-0.15-0.14c11.97-14.87,19.15-33.74,19.15-54.27c0-20.96-7.49-40.21-19.92-55.22C228.529,99.009,240.559,106.649,251.279,116.189
			z"/>
		<path style="fill:#3DBCE5;" d="M169.569,182.819l19.86,19.85c-11.39,8.63-25.57,13.76-40.93,13.76
			c-37.45,0-67.92-30.48-67.92-67.93c0-15.36,5.13-29.53,13.75-40.92l19.85,19.85c-3.78,6.13-5.96,13.35-5.96,21.07
			c0,22.21,18.07,40.29,40.28,40.29C156.219,188.789,163.439,186.599,169.569,182.819z"/>
		<path style="fill:#3DBCE5;" d="M216.429,148.499c0,15.36-5.13,29.53-13.75,40.92l-19.86-19.85c3.78-6.13,5.97-13.35,5.97-21.07
			c0-22.21-18.07-40.29-40.29-40.29c-7.72,0-14.93,2.19-21.07,5.97l-19.85-19.85c11.39-8.63,25.57-13.76,40.92-13.76
			C185.959,80.569,216.429,111.049,216.429,148.499z"/>
		<path d="M296.289,144.919c0.97,2.33,0.95,4.96-0.05,7.28c-0.37,0.87-9.39,21.46-32.22,41.92c-8.49,7.62-19.64,15.82-33.76,22.88
			l29.22,29.22c3.66,3.66,3.66,9.59,0,13.25c-1.83,1.83-4.23,2.75-6.63,2.75c-2.4,0-4.79-0.92-6.62-2.75l-34.59-34.59
			c-17.49,6.17-38.41,10.28-63.14,10.28c-58.97,0-95.91-22.34-116.51-41.08c-22.57-20.55-30.98-41.24-31.32-42.12
			c-0.9-2.24-0.89-4.75,0.02-6.99c0.35-0.86,8.91-21.54,31.55-42.06c8.52-7.72,19.81-16.05,34.24-23.18l-28.95-28.95
			c-3.66-3.66-3.66-9.59,0-13.25s9.59-3.66,13.25,0l34.4,34.39c17.48-6.06,38.44-10.08,63.32-10.08
			c58.32,0,95.28,22.33,116.02,41.06C287.219,123.399,295.929,144.049,296.289,144.919z M277.179,148.439
			c-3.31-6.17-11.36-19.3-25.9-32.25c-10.72-9.54-22.75-17.18-36.03-22.91c12.43,15.01,19.92,34.26,19.92,55.22
			c0,20.53-7.18,39.4-19.15,54.27l0.15,0.14C253.819,186.089,271.739,158.349,277.179,148.439z M202.679,189.419
			c8.62-11.39,13.75-25.56,13.75-40.92c0-37.45-30.47-67.93-67.93-67.93c-15.35,0-29.53,5.13-40.92,13.76l19.85,19.85
			c6.14-3.78,13.35-5.97,21.07-5.97c22.22,0,40.29,18.08,40.29,40.29c0,7.72-2.19,14.94-5.97,21.07L202.679,189.419z
			 M189.429,202.669l-19.86-19.85c-6.13,3.78-13.35,5.97-21.07,5.97c-22.21,0-40.28-18.08-40.28-40.29c0-7.72,2.18-14.94,5.96-21.07
			l-19.85-19.85c-8.62,11.39-13.75,25.56-13.75,40.92c0,37.45,30.47,67.93,67.92,67.93
			C163.859,216.429,178.039,211.299,189.429,202.669z M168.849,155.589c0.77-2.22,1.2-4.61,1.2-7.09c0-11.88-9.66-21.55-21.55-21.55
			c-2.48,0-4.87,0.43-7.09,1.21L168.849,155.589z M155.599,168.839l-27.44-27.43c-0.78,2.22-1.21,4.6-1.21,7.09
			c0,11.88,9.67,21.55,21.55,21.55C150.989,170.049,153.369,169.619,155.599,168.839z M80.989,94.229l-0.51-0.5
			c-12.88,5.67-24.56,13.15-34.96,22.44c-14.58,13.03-22.55,26.24-25.77,32.36c3.17,6.12,11.04,19.31,25.55,32.32
			c10.85,9.72,23.13,17.47,36.76,23.22c-12.62-15.05-20.22-34.44-20.22-55.57C61.839,127.969,69.019,109.099,80.989,94.229z"/>
	</g>
</g>
<g>
</g>
<g>
</g>
<g>
</g>
<g>
</g>
<g>
</g>
<g>
</g>
<g>
</g>
<g>
</g>
<g>
</g>
<g>
</g>
<g>
</g>
<g>
</g>
<g>
</g>
<g>
</g>
<g>
</g>
</svg>
