<svg id="Слой_1" data-name="Слой 1" xmlns="http://www.w3.org/2000/svg" viewBox="0 0 998.37 291.78"><defs><style>.cls-1{fill:#fff343;opacity:0.7;}</style></defs><title>Logo</title><polygon class="cls-1" points="987.1 238.68 15.37 259.68 0 73.45 998.37 36.68 987.1 238.68"/><path d="M327.26,226.25l1.67,1.67q0,171.91,3.33,278.88l-2.5,1.67h-2.5q-4,0-22.48-72.42-3.54-14.15-5-14.15l-21.64,86.58-.83.83H274l-2.5-1.67q-.83-177.73-3.33-277.21l.83-.83h5.83l1.66,1.67L279.81,466v.83h.83q15.81-69.09,19.15-69.09h2.5q3.12,0,8.32,30.8L322.27,471h.83l-.83-9.16L320.6,227.08l.83-.83Z" transform="translate(-178.75 -223.75)"/><path d="M394.69,228.75a13.43,13.43,0,0,1,2.5,7.49q0,1.46-23.31,2.5v.83q-2.5,81-3.33,261.81l.83-.83h4.16l16.65-.83,1.66,6.66q-6.24,2.08-44.12,5l-6.66,4.16q-5.83-3.54-5.83-5,8.12-9.16,25-9.16l2.5-252.65.83-9.16h-.83q-11,0-17.48,5h-.83l-5-3.33v-1.66Q341.41,231.25,394.69,228.75Z" transform="translate(-178.75 -223.75)"/><path d="M439.23,226.66q18.31,0,18.31,55.15l-.83.83h-5.83c-1.11,0-1.67-.76-1.67-2.29q0-46.2-10.82-46.2-12.28,0-16.65,26.22l-2.5,24.77q0,40.79,11.65,48.7,25.8,10.41,25.81,25.6,1.66,0,2.5,16.44,0,125.29-6.66,125.29-5,10.82-15,10.82h-3.33q-16.23,0-19.15-40.37V442.69l1.67-1.67h4.16l1.67,1.67V456q0,47.66,13.32,47.66h1.67q11.65,0,11.65-39.54,1.66-32,1.67-89.07,0-26.22-17.48-30.38-19.15-11.44-19.15-25.6-1.87,0-2.5-22.27V280.36q0-43.91,20.81-53.69Z" transform="translate(-178.75 -223.75)"/><path d="M518.31,233.74h4.16l.83.83h.83l-1.67,118.21h.83l3.33-.83,1.67,7.49h-.83q-5.83.42-5.83,3.33l-.83,147.35L520,511h-5.83l-.83-.83h-.83l.83-16.65V486l.83-124.87q-22.69,0-32.47,5L480,508.45l-.83.83h-5l-1.66-1.67q.83-172.32,3.33-274.71l.83-.83h5l.83.83h.83l-1.67,124h.83q9.78-3.33,31.63-3.33l1.67-116.54Z" transform="translate(-178.75 -223.75)"/><path d="M546.62,225.83l.83.83h.83q-2.5,62.85-2.5,271.8,26-8.32,30-8.32l1.67,6.66v1.66q-5.62,0-36.63,10.82-3.75-1.66-4.16-3.33.83-165,3.33-279.29l.83-.83Z" transform="translate(-178.75 -223.75)"/><path d="M641.72,228.75a13.43,13.43,0,0,1,2.5,7.49q0,1.46-23.31,2.5v.83q-2.5,81-3.33,261.81l.83-.83h4.16l16.65-.83,1.66,6.66q-6.24,2.08-44.12,5l-6.66,4.16q-5.83-3.54-5.83-5,8.12-9.16,25-9.16l2.5-252.65.83-9.16h-.83q-11,0-17.48,5h-.83l-5-3.33v-1.66Q588.45,231.25,641.72,228.75Z" transform="translate(-178.75 -223.75)"/><path d="M686.26,226.66q18.31,0,18.31,55.15l-.83.83h-5.83c-1.11,0-1.67-.76-1.67-2.29q0-46.2-10.82-46.2-12.28,0-16.65,26.22l-2.5,24.77q0,40.79,11.65,48.7,25.8,10.41,25.81,25.6,1.66,0,2.5,16.44,0,125.29-6.66,125.29-5,10.82-15,10.82h-3.33q-16.23,0-19.15-40.37V442.69l1.67-1.67h4.16l1.67,1.67V456q0,47.66,13.32,47.66h1.67q11.65,0,11.65-39.54,1.66-32,1.67-89.07,0-26.22-17.48-30.38-19.15-11.44-19.15-25.6-1.87,0-2.5-22.27V280.36q0-43.91,20.81-53.69Z" transform="translate(-178.75 -223.75)"/><path d="M767.43,223.75l1.67,7.49q0,1.46-23.31,2.5v.83l-3.33,273.88-.83.83h-5.83l-1.67-1.67,3.33-273h-.83q-11,0-17.48,5h-.83l-5-5Q714.77,226,767.43,223.75Z" transform="translate(-178.75 -223.75)"/><path d="M839.23,226.25q3.33,0,3.33,15.82v91.57L845.05,506h-6.66l-1.67-1.66-2.5-166.49V282.86l-.83-14.15h-.83q-14.16,61.4-18.31,69.09h-3.33q-3.12,0-7.49-28.3l-12.49-45h-.83l.83,7.49,1.66,236.42-.83.83h-5.83q-1.67,0-1.67-2.5,0-180.23-3.33-278l2.5-1.67h2.5q4,0,20,63.27l7.49,23.31,21.64-86.58.83-.83Z" transform="translate(-178.75 -223.75)"/><path d="M882.51,228.33h3.33q4.79,0,18.31,134,6.66,78.46,6.66,142.35l.83,4.16L905,510.53q-1.87,0-2.5-6.66,0-50.78-5-119.87-25,0-25,10l-5,115.71-.83.83h-5l-2.5-2.5Q865.86,339.67,875,260.8,879.39,228.33,882.51,228.33Zm.83,33.3L873.36,379h.83q8.12-2.5,22.48-3.33v-.83q0-18.94-12.49-113.22Z" transform="translate(-178.75 -223.75)"/><path d="M965.76,225.21h4.16q1.66,0,1.66,2.5,0,106.14-31.63,136.52,9.16,11.66,17.48,38.29,8.32,26.85,21.64,106.56l-6.66,2.5q-1.67-2.71-15.82-80.75-11.45-43.49-19.15-56.61h-.83v.83l-.83,96.57v21.64q0,17.48-2.5,17.48h-4.16l-1.67-1.67q.83-168.78,3.33-280.54l.83-.83h5.83l.83.83h.83l-.83,9.16-1.67,117.38q26.64-28.51,26.64-124Q963.89,225.21,965.76,225.21Z" transform="translate(-178.75 -223.75)"/><path d="M1025.91,225.42q3.33,5,3.33,7.49l-31.63,3.33-.83,72.42v14.15l-.83.83v.83h.83l15.82-2.5,4.16,5.83q0,2.29-17.48,4.16-3.33,3.54-3.33,6.66V399.4l-.83,99.9h.83q26-8.32,30-8.32l1.66,6.66q-1,1.46-36.63,11.65h-.83l-2.5-2.5V461q0-157.54,2.5-230.59Q1001.14,225.42,1025.91,225.42Z" transform="translate(-178.75 -223.75)"/><path d="M1055,228.75h5.83q22.68,0,26.64,45.79v5.83q0,50.37-30,61.6v.83q25,27.89,25,119l.83,46.62-.83.83h-5.83l-1.67-1.67q0-114.26-10.82-134.86-9.36-21.43-12.49-23.31V507.62l-1.67,1.67h-5l-1.67-1.67V243.73Q1043.39,228.75,1055,228.75Zm-3.33,13.32V335.3q12.49,0,23.31-23.31a130.33,130.33,0,0,0,4.16-32.47q0-29.76-12.49-40.79l-5.83-1.67h-6.66Q1051.71,237.9,1051.71,242.06Z" transform="translate(-178.75 -223.75)"/></svg>