<?xml version="1.0" encoding="iso-8859-1"?>
<!-- Generator: Adobe Illustrator 19.0.0, SVG Export Plug-In . SVG Version: 6.00 Build 0)  -->
<svg version="1.1" id="Capa_1" xmlns="http://www.w3.org/2000/svg" xmlns:xlink="http://www.w3.org/1999/xlink" x="0px" y="0px"
	 viewBox="0 0 512 512" style="enable-background:new 0 0 512 512;" xml:space="preserve">
<path style="fill:#78D2FA;" d="M10.184,501.987v-32.3c0-17.203,16.154-31.28,35.897-31.28h419.84
	c19.744,0,35.897,14.075,35.897,31.28v32.3H10.184z"/>
<g>
	<path style="fill:#C57A44;" d="M377.378,130.21v2.203H132.499v-2.203c0-66.386,53.82-120.197,120.197-120.197h4.486
		C323.568,10.013,377.378,63.823,377.378,130.21z"/>
	<path style="fill:#C57A44;" d="M377.378,224.212v69.39c0,38.23-26.004,70.682-61.2,80.535c-7.139,2.003-14.659,3.074-22.409,3.074
		h-77.661c-7.73,0-15.22-1.061-22.329-3.054c-35.236-9.823-61.28-42.305-61.28-80.555v-69.471l91.88,91.88h61.2L377.378,224.212z"/>
</g>
<g>
	<polygon style="fill:#FFBFAB;" points="377.378,132.412 377.378,224.212 285.58,316.012 224.379,316.012 132.499,224.132 
		132.499,132.412 	"/>
	<polygon style="fill:#FFBFAB;" points="316.179,373.747 316.179,438.411 193.779,438.411 193.779,373.767 	"/>
</g>
<path d="M465.92,428.395H326.192v-46.962c35.691-13.218,61.199-47.6,61.199-87.83v-69.366c0-0.017,0-94.026,0-94.026
	C387.391,58.412,328.979,0,257.182,0h-4.485c-71.798,0-130.21,58.412-130.21,130.21v163.393c0,40.261,25.547,74.666,61.281,87.861
	v46.931H46.081c-25.315,0-45.911,18.524-45.911,41.293v32.299C0.17,507.516,4.654,512,10.183,512h491.634
	c5.529,0,10.013-4.484,10.013-10.013v-32.299C511.831,446.919,491.235,428.395,465.92,428.395z M315.925,271.504l-23.264-23.264
	c-1.878-1.877-4.425-2.933-7.08-2.933h-61.709c-2.655,0-5.202,1.055-7.08,2.933l-23.009,23.009l-51.269-51.269v-77.554h224.853
	v77.637L315.925,271.504z M301.764,285.664l-20.331,20.331h-52.903l-20.587-20.587l20.076-20.076h53.414L301.764,285.664z
	 M252.697,20.026h4.485c58.131,0,105.891,45.248,109.91,102.373h-41.154V71.212c0-5.529-4.484-10.013-10.013-10.013
	s-10.013,4.484-10.013,10.013v51.188h-41.045V71.212c0-5.529-4.484-10.013-10.013-10.013s-10.013,4.484-10.013,10.013v51.188
	h-41.046V71.212c0-5.529-4.484-10.013-10.013-10.013s-10.013,4.484-10.013,10.013v51.188h-40.981
	C146.806,65.274,194.566,20.026,252.697,20.026z M142.513,293.602v-45.3l44.179,44.179c0.003,0.003,0.006,0.007,0.009,0.01
	c0.003,0.003,0.007,0.006,0.01,0.009l30.59,30.59c1.878,1.877,4.425,2.933,7.08,2.933h61.199c2.655,0,5.202-1.055,7.08-2.933
	l30.335-30.336c0.003-0.003,0.007-0.006,0.01-0.009s0.006-0.007,0.009-0.01l44.35-44.351v45.217
	c0,40.581-33.015,73.596-73.596,73.596h-77.661C175.527,367.198,142.513,334.183,142.513,293.602z M491.805,491.974H20.196v-22.286
	c0-11.528,11.853-21.267,25.885-21.267h163.115c5.529,0,10.013-4.484,10.013-10.013s-4.484-10.013-10.013-10.013h-5.403v-41.982
	c4.031,0.532,8.141,0.811,12.315,0.811h77.661c4.202,0,8.34-0.283,12.397-0.822v41.993H289.3c-5.529,0-10.013,4.484-10.013,10.013
	s4.484,10.013,10.013,10.013h176.62c14.031,0,25.885,9.74,25.885,21.267V491.974z"/>
<path d="M249.251,428.558c-2.643,0-5.217,1.07-7.079,2.934c-1.872,1.862-2.943,4.446-2.943,7.079c0,0.65,0.069,1.312,0.2,1.953
	c0.13,0.641,0.319,1.272,0.57,1.871c0.25,0.611,0.562,1.192,0.921,1.732c0.37,0.551,0.791,1.061,1.252,1.522
	c1.862,1.862,4.437,2.935,7.079,2.935c0.651,0,1.302-0.07,1.953-0.2c0.641-0.13,1.272-0.32,1.872-0.571
	c0.601-0.25,1.191-0.561,1.731-0.921c0.551-0.359,1.062-0.78,1.523-1.242c0.461-0.461,0.881-0.971,1.241-1.522
	c0.36-0.541,0.672-1.121,0.922-1.732c0.25-0.601,0.44-1.231,0.57-1.871c0.13-0.642,0.2-1.303,0.2-1.953
	c0-2.633-1.071-5.217-2.934-7.079C254.468,429.629,251.885,428.558,249.251,428.558z"/>
<g>
</g>
<g>
</g>
<g>
</g>
<g>
</g>
<g>
</g>
<g>
</g>
<g>
</g>
<g>
</g>
<g>
</g>
<g>
</g>
<g>
</g>
<g>
</g>
<g>
</g>
<g>
</g>
<g>
</g>
</svg>
