<?xml version="1.0" encoding="iso-8859-1"?>
<!-- Generator: Adobe Illustrator 19.0.0, SVG Export Plug-In . SVG Version: 6.00 Build 0)  -->
<svg version="1.1" id="Layer_1" xmlns="http://www.w3.org/2000/svg" xmlns:xlink="http://www.w3.org/1999/xlink" x="0px" y="0px"
	 viewBox="0 0 297.003 297.003" style="enable-background:new 0 0 297.003 297.003;" xml:space="preserve">
<g>
	<g id="XMLID_52_">
		<g>
			<path style="fill:#7F8C8D;" d="M148.499,126.951c11.89,0,21.55,9.67,21.55,21.55s-9.66,21.55-21.55,21.55
				c-11.88,0-21.55-9.67-21.55-21.55S136.619,126.951,148.499,126.951z"/>
			<path style="fill:#16A085;" d="M148.499,80.571c37.46,0,67.93,30.48,67.93,67.93s-30.47,67.93-67.93,67.93
				c-37.45,0-67.92-30.48-67.92-67.93S111.049,80.571,148.499,80.571z M188.789,148.501c0-22.21-18.07-40.29-40.29-40.29
				c-22.21,0-40.28,18.08-40.28,40.29s18.07,40.29,40.28,40.29C170.719,188.791,188.789,170.711,188.789,148.501z"/>
			<path style="fill:#BDC3C7;" d="M61.839,148.501c0,21.13,7.6,40.52,20.22,55.57c-13.63-5.75-25.91-13.5-36.76-23.22
				c-14.51-13.01-22.38-26.2-25.55-32.32c3.22-6.12,11.19-19.33,25.77-32.36c10.78-9.63,22.94-17.33,36.39-23.07
				C69.389,108.131,61.839,127.451,61.839,148.501z"/>
			<path style="fill:#BDC3C7;" d="M251.279,116.191c14.54,12.95,22.59,26.08,25.9,32.25c-5.46,9.94-23.49,37.85-61.43,54.66
				c12.13-14.91,19.42-33.92,19.42-54.6c0-20.96-7.49-40.21-19.92-55.22C228.529,99.011,240.559,106.651,251.279,116.191z"/>
			<path d="M296.289,144.921c0.97,2.33,0.95,4.96-0.05,7.28c-0.37,0.87-9.39,21.46-32.22,41.92
				c-20.87,18.73-57.86,41.04-115.52,41.04c-58.97,0-95.91-22.34-116.51-41.08c-22.57-20.55-30.98-41.24-31.32-42.12
				c-0.9-2.24-0.89-4.75,0.02-6.99c0.35-0.86,8.91-21.54,31.55-42.06c20.67-18.74,57.62-41.07,116.26-41.07
				c58.32,0,95.28,22.33,116.02,41.06C287.219,123.401,295.929,144.051,296.289,144.921z M277.179,148.441
				c-3.31-6.17-11.36-19.3-25.9-32.25c-10.72-9.54-22.75-17.18-36.03-22.91c12.43,15.01,19.92,34.26,19.92,55.22
				c0,20.68-7.29,39.69-19.42,54.6C253.689,186.291,271.719,158.381,277.179,148.441z M216.429,148.501
				c0-37.45-30.47-67.93-67.93-67.93c-37.45,0-67.92,30.48-67.92,67.93s30.47,67.93,67.92,67.93
				C185.959,216.431,216.429,185.951,216.429,148.501z M82.059,204.071c-12.62-15.05-20.22-34.44-20.22-55.57
				c0-21.05,7.55-40.37,20.07-55.4c-13.45,5.74-25.61,13.44-36.39,23.07c-14.58,13.03-22.55,26.24-25.77,32.36
				c3.17,6.12,11.04,19.31,25.55,32.32C56.149,190.571,68.429,198.321,82.059,204.071z"/>
			<path d="M148.499,108.211c22.22,0,40.29,18.08,40.29,40.29s-18.07,40.29-40.29,40.29c-22.21,0-40.28-18.08-40.28-40.29
				S126.289,108.211,148.499,108.211z M170.049,148.501c0-11.88-9.66-21.55-21.55-21.55c-11.88,0-21.55,9.67-21.55,21.55
				s9.67,21.55,21.55,21.55C160.389,170.051,170.049,160.381,170.049,148.501z"/>
		</g>
	</g>
</g>
<g>
</g>
<g>
</g>
<g>
</g>
<g>
</g>
<g>
</g>
<g>
</g>
<g>
</g>
<g>
</g>
<g>
</g>
<g>
</g>
<g>
</g>
<g>
</g>
<g>
</g>
<g>
</g>
<g>
</g>
</svg>
