<?xml version="1.0" encoding="iso-8859-1"?>
<!-- Generator: Adobe Illustrator 19.0.0, SVG Export Plug-In . SVG Version: 6.00 Build 0)  -->
<svg version="1.1" id="Capa_1" xmlns="http://www.w3.org/2000/svg" xmlns:xlink="http://www.w3.org/1999/xlink" x="0px" y="0px"
	 viewBox="0 0 512.001 512.001" style="enable-background:new 0 0 512.001 512.001;" xml:space="preserve">
<path style="fill:#BF4450;" d="M194.361,360.843v67.251C123.139,402.726,71.793,334.475,71.793,254.81v-60.949
	c0-18.606,2.801-36.591,8.013-53.547c10.493,22.447,29.759,39.952,53.387,48.135c-0.08,1.681-0.11,3.371-0.11,5.072v61.289
	C133.082,299.934,157.8,339.576,194.361,360.843z"/>
<path style="fill:#FF5A6A;" d="M431.565,140.534c-10.533,22.387-29.829,39.852-53.457,47.975
	c-9.413,3.261-19.526,5.012-30.049,5.012c-25.478,0-48.575-10.323-65.3-27.018c-16.725-16.695-27.078-39.762-27.078-65.24
	c0,50.956-36.751,99.971-87.707,99.971c-10.583,0-25.308-9.493-34.781-12.784c-23.627-8.183-42.893-25.688-53.387-48.135v-0.01
	C102.863,65.09,173.145,10.003,255.65,10.003c50.566,0,96.52,20.686,129.841,54.007C406.608,85.127,422.653,111.315,431.565,140.534
	z"/>
<path style="fill:#FFBFAB;" d="M378.219,193.52v61.289c0,45.124-24.718,84.766-61.279,106.033
	c-18.066,10.513-39.002,16.535-61.289,16.535c-22.287,0-43.224-6.022-61.289-16.535c-36.561-21.267-61.279-60.909-61.279-106.033
	V193.52c0-1.701,0.03-3.391,0.11-5.072c9.473,3.291,19.646,5.072,30.229,5.072c50.956,0,92.259-41.303,92.259-92.259
	c0,25.478,10.353,48.545,27.078,65.24c16.725,16.695,39.822,27.018,65.3,27.018c10.523,0,20.636-1.751,30.049-5.012
	C378.189,190.179,378.219,191.84,378.219,193.52z"/>
<path style="fill:#FFA78F;" d="M316.94,360.843v77.574H194.361v-77.574c18.066,10.513,39.002,16.535,61.289,16.535
	C277.937,377.378,298.874,371.356,316.94,360.843z"/>
<path style="fill:#FF7B88;" d="M501.607,407.687c0,19.366-5.972,37.342-16.175,52.176c-4.531,6.602-9.903,12.584-15.965,17.796
	c-1.13,0.97-2.281,1.911-3.451,2.831c-14.775,11.524-33.16,20.476-53.177,21.417h-7.442c-38.712-1.731-76.164-28.689-88.458-63.24
	v-77.824c36.561-21.267,61.279-60.909,61.279-106.033V193.52c0-1.681-0.03-3.341-0.11-5.012
	c23.627-8.123,42.923-25.588,53.457-47.975c5.162,16.895,7.942,34.801,7.942,53.327v214.497L501.607,407.687z"/>
<g>
	<path style="fill:#32C8AF;" d="M405.397,501.907H10.134c0-34.921,29.309-63.49,65.14-63.49H316.94v0.25
		C329.233,473.218,366.685,500.176,405.397,501.907z"/>
	<path style="fill:#32C8AF;" d="M501.867,501.907h-89.028c20.016-0.94,38.402-9.893,53.177-21.417
		c1.17-0.92,2.321-1.861,3.451-2.831c6.062-5.212,11.434-11.194,15.965-17.796C495.645,471.087,501.867,485.812,501.867,501.907z"/>
</g>
<path d="M497.731,459.137c9.1-15.575,13.879-33.211,13.879-51.449c0-2.672-1.068-5.232-2.968-7.111
	c-1.875-1.854-4.402-2.892-7.035-2.892c-0.036,0-0.072,0-0.107,0.001l-51.989,0.561V193.861c0-19.125-2.819-38.05-8.38-56.249
	c-0.001-0.004-0.003-0.007-0.004-0.011c-9.221-30.221-26.014-58.114-48.563-80.663C355.848,20.22,307.224,0,255.65,0
	c-42.203,0-82.397,13.472-116.234,38.958c-32.7,24.631-57.264,59.575-69.169,98.398c-0.001,0.005-0.003,0.009-0.005,0.014
	c-5.607,18.248-8.45,37.255-8.45,56.492v60.949c0,73.951,42.494,141.085,107.814,173.603H75.274
	c-41.435,0-75.143,32.969-75.143,73.494c0,5.524,4.479,10.003,10.003,10.003h395.243c1.329,0.054,2.664,0.09,3.971,0.09
	c1.161,0,2.339-0.037,3.508-0.09h89.011c5.524,0,10.003-4.479,10.003-10.003C511.87,486.507,506.887,471.585,497.731,459.137z
	 M490.989,417.807c-1.599,13.049-6.29,25.472-13.804,36.396c-4.031,5.875-8.822,11.214-14.233,15.866
	c-0.983,0.845-2.005,1.681-3.086,2.533c-13.385,10.534-30.182,18.459-47.353,19.302c-23.006,0-44.792-7.797-62.302-22.921
	c-0.243-0.21-0.478-0.427-0.719-0.639c-0.558-0.492-1.116-0.984-1.662-1.488c-0.25-0.231-0.491-0.469-0.738-0.703
	c-0.524-0.495-1.048-0.989-1.559-1.495c-0.256-0.254-0.503-0.514-0.76-0.776c-5.493-5.579-10.481-12.13-14.178-19.048
	c-0.216-0.405-0.419-0.814-0.627-1.222c-0.253-0.497-0.51-0.992-0.751-1.493c-0.202-0.419-0.39-0.843-0.583-1.265
	c-0.227-0.496-0.457-0.992-0.672-1.492c-0.187-0.434-0.359-0.873-0.537-1.31c-0.162-0.4-0.325-0.8-0.48-1.203v-70.397
	c0.448-0.287,0.883-0.589,1.327-0.882c0.557-0.367,1.115-0.732,1.667-1.107c4.236-2.884,8.329-6.042,12.205-9.398
	c0.428-0.371,0.862-0.735,1.285-1.11c13.115-11.651,23.879-25.896,31.529-41.682c8.596-17.738,12.96-37.178,13.305-56.853
	c0.17-9.686,0.001-19.396,0.01-29.085c0.009-9.18-0.766-18.398-0.882-27.588c-0.011-0.872-0.01-1.793,0.422-2.55
	c0.525-0.919,1.563-1.393,2.529-1.828c7.755-3.486,15.041-8.01,21.669-13.332c0.066-0.053,0.129-0.108,0.195-0.161
	c5.445-4.393,10.175-9.553,15.092-14.523c4.28,26.694,2.211,55.103,2.211,82.119c0,30.037,0,60.075,0,90.112
	c0,23.259,0,46.519,0,69.778c0,2.672,1.068,5.232,2.968,7.111c1.875,1.854,4.402,2.892,7.035,2.892c0.036,0,0.072,0,0.108-0.001
	L490.989,417.807z M204.369,428.413v-51.424c16.178,6.826,33.631,10.392,51.282,10.392c17.654,0,35.107-3.567,51.286-10.394v51.426
	L204.369,428.413L204.369,428.413z M255.65,20.006c46.23,0,89.83,18.14,122.767,51.078c19.303,19.301,33.901,42.95,42.383,68.603
	c-0.026,0.049-0.049,0.101-0.075,0.15c-0.231,0.435-0.482,0.857-0.721,1.287c-0.411,0.739-0.819,1.48-1.252,2.206
	c-0.283,0.474-0.585,0.936-0.877,1.404c-4.625,7.401-10.518,14.145-17.223,19.731c-0.465,0.387-0.931,0.771-1.404,1.148
	c-0.569,0.453-1.146,0.895-1.727,1.333c-2.605,1.966-5.315,3.783-8.134,5.427c-12.185,7.108-26.871,11.146-41.328,11.146
	c-45.365,0-82.272-36.903-82.272-82.261c0-5.524-4.479-10.003-10.003-10.003c-0.017,0-0.034,0.002-0.051,0.002
	s-0.034-0.002-0.051-0.002c-5.524,0-10.003,4.479-10.003,10.003c0,23.298-9.943,45.601-27.281,61.19
	c-4.107,3.694-4.443,10.019-0.75,14.127c1.977,2.197,4.703,3.314,7.441,3.314c2.383,0,4.773-0.846,6.686-2.564
	c10.122-9.102,18.216-20.046,23.954-32.095c16.474,34.444,51.666,58.294,92.329,58.294c6.823,0,13.562-0.681,20.156-2.003v53.286
	c0,7.475-0.758,14.861-2.22,22.061c-0.676,3.33-1.512,6.617-2.484,9.858c-0.193,0.643-0.393,1.282-0.597,1.922
	c-8.404,26.319-26.396,49.231-51.007,63.548c-17.061,9.929-36.514,15.177-56.257,15.177c-19.743,0-39.197-5.248-56.26-15.178
	c-34.731-20.202-56.306-57.519-56.306-97.386v-53.311c0.666,0.134,1.329,0.199,1.984,0.199c4.66,0,8.833-3.275,9.793-8.021
	c1.097-5.415-2.404-10.692-7.818-11.789c-3.572-0.724-7.129-1.696-10.577-2.894c-19.678-6.815-36.22-21.102-45.902-39.502
	C113.976,68.943,181.296,20.006,255.65,20.006z M81.798,254.81v-60.949c0-9.465,0.772-18.865,2.295-28.123
	c10.401,12.756,23.791,22.97,38.986,29.509v59.562c0,45.028,23.345,87.265,61.284,111.623v46.843
	C122.469,385.282,81.798,323.305,81.798,254.81z M21.104,491.904c4.843-24.729,27.292-43.485,54.17-43.485h234.802
	c0.057,0.128,0.121,0.254,0.179,0.382c0.209,0.462,0.43,0.919,0.646,1.378c0.31,0.659,0.621,1.316,0.948,1.97
	c0.238,0.476,0.487,0.947,0.733,1.42c0.327,0.626,0.656,1.25,0.996,1.87c0.263,0.479,0.534,0.953,0.806,1.427
	c0.347,0.605,0.698,1.207,1.058,1.807c0.285,0.473,0.574,0.943,0.867,1.412c0.37,0.591,0.746,1.178,1.129,1.763
	c0.302,0.462,0.606,0.922,0.916,1.379c0.396,0.584,0.802,1.162,1.211,1.739c0.315,0.444,0.63,0.889,0.953,1.329
	c0.428,0.583,0.868,1.159,1.309,1.736c0.322,0.42,0.641,0.843,0.97,1.258c0.47,0.594,0.953,1.178,1.436,1.763
	c0.319,0.385,0.631,0.774,0.956,1.156c0.543,0.639,1.102,1.266,1.663,1.894c0.28,0.314,0.552,0.634,0.836,0.945
	c0.85,0.931,1.717,1.852,2.601,2.756c0.024,0.024,0.048,0.047,0.072,0.071c0.862,0.88,1.742,1.746,2.635,2.599
	c0.306,0.292,0.622,0.574,0.931,0.863c0.62,0.578,1.239,1.156,1.873,1.722c0.375,0.335,0.76,0.66,1.14,0.99
	c0.582,0.505,1.163,1.01,1.757,1.504c0.413,0.344,0.833,0.68,1.251,1.019c0.574,0.465,1.149,0.929,1.734,1.384
	c0.438,0.341,0.882,0.676,1.326,1.011c0.578,0.437,1.157,0.87,1.745,1.296c0.458,0.333,0.92,0.661,1.383,0.988
	c0.305,0.215,0.604,0.438,0.911,0.651L21.104,491.904L21.104,491.904z M467.429,491.904c0.074-0.053,0.143-0.105,0.216-0.157
	c0.742-0.529,1.467-1.055,2.171-1.578c0.079-0.059,0.156-0.117,0.234-0.176c0.736-0.55,1.455-1.097,2.148-1.638
	c1.342-1.056,2.58-2.071,3.79-3.109c0.823-0.708,1.633-1.428,2.433-2.162c0.275-0.252,0.541-0.513,0.813-0.768
	c0.521-0.488,1.044-0.975,1.554-1.474c0.301-0.294,0.594-0.597,0.891-0.895c0.47-0.471,0.943-0.94,1.404-1.419
	c0.303-0.316,0.598-0.639,0.897-0.959c0.375-0.401,0.757-0.796,1.125-1.203c2.747,4.864,4.695,10.106,5.773,15.54L467.429,491.904
	L467.429,491.904z"/>
<path d="M175.834,195.141c0.25,0.6,0.561,1.18,0.921,1.721c0.359,0.55,0.779,1.06,1.239,1.52c0.46,0.46,0.971,0.88,1.521,1.25
	c0.54,0.36,1.13,0.67,1.73,0.92c0.601,0.25,1.23,0.44,1.871,0.57c0.641,0.13,1.3,0.19,1.951,0.19c0.66,0,1.31-0.061,1.961-0.19
	c0.64-0.13,1.26-0.32,1.871-0.57c0.6-0.25,1.18-0.56,1.721-0.92c0.55-0.37,1.061-0.79,1.521-1.25c0.46-0.46,0.88-0.97,1.25-1.52
	c0.359-0.54,0.67-1.12,0.92-1.721c0.25-0.61,0.439-1.24,0.569-1.871c0.131-0.65,0.19-1.311,0.19-1.961c0-0.65-0.06-1.311-0.19-1.951
	c-0.13-0.64-0.319-1.271-0.569-1.871c-0.25-0.61-0.561-1.19-0.92-1.731c-0.37-0.55-0.79-1.06-1.25-1.52
	c-0.46-0.46-0.971-0.88-1.521-1.24c-0.54-0.359-1.12-0.67-1.721-0.92c-0.61-0.25-1.23-0.439-1.871-0.57
	c-1.29-0.26-2.621-0.26-3.911,0c-0.64,0.131-1.27,0.32-1.871,0.57c-0.6,0.25-1.18,0.561-1.73,0.92c-0.55,0.36-1.061,0.78-1.521,1.24
	c-0.46,0.46-0.88,0.97-1.239,1.52c-0.36,0.54-0.671,1.12-0.921,1.731c-0.25,0.6-0.439,1.23-0.569,1.871
	c-0.13,0.64-0.2,1.3-0.2,1.951c0,0.649,0.07,1.31,0.2,1.961C175.395,193.901,175.584,194.531,175.834,195.141z"/>
<g>
</g>
<g>
</g>
<g>
</g>
<g>
</g>
<g>
</g>
<g>
</g>
<g>
</g>
<g>
</g>
<g>
</g>
<g>
</g>
<g>
</g>
<g>
</g>
<g>
</g>
<g>
</g>
<g>
</g>
</svg>
