<svg xmlns="http://www.w3.org/2000/svg" viewBox="0 0 640 433.55"><title>by-BY</title><path d="M345.33,219.39v-.8a9.53,9.53,0,0,0-9.52-9.52h-486V90.48H450.16V209.07H377.1a9.53,9.53,0,0,0-9.52,9.52v.8Zm0,0" transform="translate(170 67)" style="fill:#ed1f34"/><rect x="20.65" y="20.65" width="598.71" height="116.99" style="fill:#fff"/><path d="M-150.16,346.7V228.11h486a9.53,9.53,0,0,0,9.52-9.52v-.8h22.25v.8a9.53,9.53,0,0,0,9.52,9.52h73.06V346.7Zm0,0" transform="translate(170 67)" style="fill:#fff"/><path d="M459.68-67H-159.68A10.32,10.32,0,0,0-170-56.68v412.9a10.32,10.32,0,0,0,10.32,10.32H459.68A10.32,10.32,0,0,0,470,356.23V-56.68A10.32,10.32,0,0,0,459.68-67ZM449.35-46.35v117H-149.35v-117ZM-149.35,345.9v-117H335.8a10.32,10.32,0,1,0,0-20.64H-149.35v-117H449.35v117H377.1a10.32,10.32,0,1,0,0,20.64h72.26v117Zm0,0" transform="translate(170 67)"/></svg>